Coordinates
version=1
nRows=30
nColumns=38
inDegrees=no

Units are S.I. units (second, meters, Newtons, ...)
If the header above contains a line with 'inDegrees', this indicates whether rotational values are in degrees (yes) or radians (no).

endheader
time	pelvis_tilt	pelvis_list	pelvis_rotation	pelvis_tx	pelvis_ty	pelvis_tz	hip_flexion_r	hip_adduction_r	hip_rotation_r	knee_angle_r	ankle_angle_r	subtalar_angle_r	mtp_angle_r	hip_flexion_l	hip_adduction_l	hip_rotation_l	knee_angle_l	ankle_angle_l	subtalar_angle_l	mtp_angle_l	lumbar_extension	lumbar_bending	lumbar_rotation	arm_flex_r	arm_add_r	arm_rot_r	elbow_flex_r	pro_sup_r	wrist_flex_r	wrist_dev_r	arm_flex_l	arm_add_l	arm_rot_l	elbow_flex_l	pro_sup_l	wrist_flex_l	wrist_dev_l
0.72	0.124027	1.38065	-1.49756	0.650778	1.499	0.956131	0.00738073	-0.09297	-0.0648726	1.40283	-0.355497	0	0	-0.062983	0.0703702	0.0140994	0.243851	-0.279805	0	0	-0.418777	0.0801035	-0.121345	-0.180685	-0.501676	0.590914	0.790896	0.814511	0	0	-0.196942	-0.199537	-0.106158	0.657947	1.5708	0	0
0.73	0.0986863	1.3756	-1.4658	0.653182	1.49169	0.95807	0.0293676	-0.0875599	-0.0634986	1.42111	-0.348525	0	0	-0.0821413	0.0635715	0.015549	0.232899	-0.282143	0	0	-0.423929	0.0893634	-0.12357	-0.180312	-0.501674	0.585138	0.790346	0.817149	0	0	-0.190268	-0.198537	-0.101919	0.654481	1.5708	0	0
0.74	0.0780425	1.37154	-1.44036	0.655475	1.48442	0.959808	0.0515211	-0.0829036	-0.0622815	1.43299	-0.340999	0	0	-0.100334	0.057658	0.0176543	0.221505	-0.284255	0	0	-0.427952	0.0972427	-0.124246	-0.180296	-0.501981	0.57962	0.789965	0.820533	0	0	-0.183123	-0.19748	-0.0973253	0.650333	1.5708	0	0
0.75	0.0531266	1.36984	-1.41196	0.657514	1.47726	0.961078	0.0755566	-0.0767045	-0.0611054	1.43864	-0.336273	0	0	-0.114164	0.0498842	0.0136549	0.214153	-0.282307	0	0	-0.430472	0.104953	-0.126699	-0.177211	-0.50189	0.576579	0.788634	0.82838	0	0	-0.179438	-0.195725	-0.098751	0.65012	1.5708	0	0
0.76	0.0466477	1.36167	-1.39163	0.661286	1.47014	0.962959	0.0747614	-0.204111	-0.317313	1.4423	-0.365664	0	0	-0.135536	0.0463096	0.0125734	0.205512	-0.285681	0	0	-0.437686	0.115446	-0.137504	-0.174124	-0.507193	0.582432	0.791199	0.821058	0	0	-0.173513	-0.193883	-0.0960709	0.647182	1.5708	0	0
0.77	0.0248375	1.36466	-1.36347	0.66328	1.46336	0.963518	0.103062	-0.200111	-0.32055	1.44105	-0.352655	0	0	-0.146136	0.0408399	0.0153408	0.191092	-0.285591	0	0	-0.432675	0.122995	-0.131334	-0.184478	-0.504228	0.560486	0.792101	0.828688	0	0	-0.158119	-0.196044	-0.0765876	0.634732	1.5708	0	0
0.78	-0.066425	1.37667	-1.2779	0.664058	1.45957	0.964623	0.154603	-0.0415651	-0.0472301	1.40559	-0.311712	0	0	-0.128056	0.0241061	0.00513944	0.20454	-0.282447	0	0	-0.428251	0.138334	-0.129714	-0.150893	-0.510988	0.602872	0.777436	0.803373	0	0	-0.144037	-0.188552	-0.0873724	0.62171	1.5708	0	0
0.79	-0.0332208	1.37334	-1.2959	0.66585	1.45125	0.96422	0.175994	-0.0595971	-0.0773918	1.41388	-0.317527	0	0	-0.145219	0.0242791	0.000216807	0.200742	-0.279422	0	0	-0.427025	0.136522	-0.142429	-0.157941	-0.509892	0.600581	0.784455	0.799821	0	0	-0.148657	-0.195099	-0.0840321	0.633087	1.5708	0	0
0.8	-0.0403105	1.37233	-1.28118	0.667646	1.44444	0.96459	0.198437	-0.0609562	-0.0846631	1.40377	-0.320361	0	0	-0.1566	0.0197326	-0.00454544	0.195916	-0.277328	0	0	-0.429143	0.141239	-0.148442	-0.154943	-0.510179	0.601548	0.785801	0.797656	0	0	-0.146321	-0.1973	-0.0814628	0.637764	1.5708	0	0
0.81	-0.0541049	1.37361	-1.26575	0.669052	1.43741	0.96463	0.220897	-0.0618917	-0.090168	1.38713	-0.315638	0	0	-0.165611	0.0160247	-0.00862757	0.19045	-0.271897	0	0	-0.427007	0.144485	-0.12886	-0.18823	-0.49244	0.521276	0.788736	0.854148	0	0	-0.125341	-0.218852	0.00226507	0.627973	1.5305	0	0
0.82	-0.0598626	1.37536	-1.25415	0.67021	1.43062	0.964733	0.241856	-0.0611687	-0.0912605	1.36582	-0.311422	0	0	-0.174909	0.0119192	-0.0171467	0.183583	-0.270512	0	0	-0.426548	0.147138	-0.13357	-0.182412	-0.493184	0.527862	0.787569	0.849113	0	0	-0.122216	-0.216311	-0.00962441	0.63026	1.54162	0	0
0.83	-0.0672685	1.37657	-1.24401	0.67135	1.42384	0.964768	0.260121	-0.061236	-0.0928471	1.33983	-0.300448	0	0	-0.184054	0.00881426	-0.0222704	0.177926	-0.268824	0	0	-0.427047	0.149551	-0.136978	-0.175569	-0.493939	0.536086	0.786033	0.842538	0	0	-0.119563	-0.213629	-0.0230737	0.631468	1.55526	0	0
0.84	-0.0697594	1.37747	-1.2386	0.672468	1.41711	0.964723	0.276029	-0.0626596	-0.0950927	1.31042	-0.290485	0	0	-0.193918	0.00645483	-0.0256089	0.171944	-0.267071	0	0	-0.428276	0.151266	-0.140307	-0.169155	-0.494437	0.543413	0.784787	0.835643	0	0	-0.116983	-0.211606	-0.0347691	0.633671	1.56763	0	0
0.85	-0.0691032	1.37817	-1.23635	0.673517	1.41034	0.964611	0.289469	-0.0647732	-0.0978399	1.27729	-0.283292	0	0	-0.204482	0.00471837	-0.0260928	0.165664	-0.264721	0	0	-0.429998	0.152319	-0.144446	-0.161858	-0.494455	0.55156	0.782888	0.826808	0	0	-0.115425	-0.209963	-0.045724	0.637171	1.5708	0	0
0.86	-0.0658326	1.37878	-1.23727	0.674481	1.40355	0.964433	0.300743	-0.0670766	-0.099971	1.2404	-0.281119	0	0	-0.215	0.00369604	-0.0256853	0.160332	-0.261998	0	0	-0.431862	0.152534	-0.147499	-0.155378	-0.493885	0.558353	0.780759	0.820299	0	0	-0.113356	-0.210627	-0.0491251	0.640677	1.5708	0	0
0.87	-0.061109	1.37976	-1.24047	0.675335	1.39675	0.964144	0.310244	-0.0687205	-0.100343	1.19924	-0.281949	0	0	-0.225465	0.0033088	-0.023621	0.154813	-0.258472	0	0	-0.433423	0.152042	-0.149591	-0.14928	-0.493354	0.565055	0.778913	0.814429	0	0	-0.110529	-0.211799	-0.0501741	0.64302	1.5708	0	0
0.88	-0.0563479	1.38082	-1.24499	0.676133	1.38991	0.963756	0.317838	-0.0695567	-0.09943	1.15379	-0.285242	0	0	-0.235994	0.00346845	-0.0205438	0.149376	-0.253906	0	0	-0.435225	0.151283	-0.150343	-0.143886	-0.493389	0.570817	0.778193	0.80852	0	0	-0.106939	-0.212765	-0.0503666	0.644484	1.5708	0	0
0.89	-0.051062	1.3827	-1.25027	0.676883	1.38298	0.963199	0.323791	-0.0700938	-0.0983276	1.10402	-0.287717	0	0	-0.245558	0.00425658	-0.0158126	0.144289	-0.248341	0	0	-0.436096	0.150072	-0.150819	-0.139149	-0.493239	0.57594	0.77759	0.802728	0	0	-0.102874	-0.214163	-0.0492754	0.644731	1.5708	0	0
0.9	-0.0449068	1.38553	-1.25732	0.677517	1.376	0.962443	0.328355	-0.0701514	-0.0964022	1.05024	-0.286665	0	0	-0.254114	0.00576395	-0.011016	0.139332	-0.240311	0	0	-0.436077	0.148008	-0.150314	-0.134703	-0.493221	0.581496	0.776974	0.796142	0	0	-0.098516	-0.215821	-0.0471249	0.644253	1.5708	0	0
0.91	-0.0305687	1.38626	-1.27326	0.677863	1.36917	0.961638	0.328229	-0.0700544	-0.0937672	0.993199	-0.280763	0	0	-0.265172	0.00793625	-0.00580863	0.134654	-0.232497	0	0	-0.428133	0.141364	-0.0779614	-0.227792	-0.448495	0.385783	0.784966	0.918259	0	0	-0.0113118	-0.298263	0.330489	0.605695	1.29217	0	0
0.92	-0.0303025	1.39343	-1.27635	0.678388	1.36191	0.960381	0.332883	-0.0689494	-0.0906018	0.931789	-0.275104	0	0	-0.268925	0.00995995	-0.00153411	0.130564	-0.229548	0	0	-0.429322	0.140973	-0.111866	-0.178259	-0.472427	0.486229	0.781181	0.849337	0	0	-0.0536073	-0.250024	0.105157	0.617714	1.47226	0	0
0.93	-0.0229037	1.39948	-1.28663	0.67881	1.35476	0.958989	0.33452	-0.0690505	-0.0889202	0.868393	-0.272232	0	0	-0.272723	0.012533	-0.00202686	0.129372	-0.224596	0	0	-0.425903	0.137293	-0.107471	-0.179618	-0.469649	0.478758	0.780701	0.853401	0	0	-0.0465289	-0.253339	0.119632	0.613844	1.46213	0	0
0.94	-0.0112204	1.40555	-1.30159	0.679134	1.3475	0.957528	0.334299	-0.0698364	-0.0886692	0.802909	-0.271708	0	0	-0.276909	0.0158006	-0.00174654	0.127586	-0.218952	0	0	-0.422802	0.132872	-0.103138	-0.181194	-0.466895	0.470789	0.780777	0.8576	0	0	-0.0403099	-0.256927	0.133915	0.611164	1.45114	0	0
0.95	0.00196423	1.41133	-1.31866	0.679323	1.34012	0.956018	0.331497	-0.0700797	-0.0892063	0.733431	-0.275081	0	0	-0.281597	0.0192523	-0.0014661	0.125615	-0.212619	0	0	-0.419873	0.128033	-0.0975898	-0.183895	-0.46362	0.460667	0.780978	0.862948	0	0	-0.03385	-0.261957	0.153125	0.609197	1.43758	0	0
0.96	0.0177588	1.41746	-1.33906	0.679359	1.33258	0.954371	0.327154	-0.0698946	-0.0892937	0.660935	-0.281152	0	0	-0.285932	0.023097	-0.0028325	0.124038	-0.206957	0	0	-0.416402	0.122432	-0.0913537	-0.186909	-0.460322	0.451457	0.781224	0.869192	0	0	-0.0280294	-0.267434	0.17306	0.60823	1.4226	0	0
0.97	0.03145	1.42359	-1.35749	0.67929	1.3249	0.952736	0.319331	-0.0684856	-0.090671	0.581568	-0.283931	0	0	-0.290058	0.0262912	-0.00541126	0.122819	-0.203209	0	0	-0.413095	0.117446	-0.0918223	-0.179855	-0.461946	0.465022	0.77976	0.859205	0	0	-0.030002	-0.266786	0.161942	0.610307	1.42907	0	0
0.98	0.0490807	1.42891	-1.37941	0.679176	1.31701	0.951097	0.307843	-0.0670698	-0.0941142	0.498228	-0.290218	0	0	-0.295371	0.0293932	-0.00881383	0.121656	-0.198165	0	0	-0.410684	0.112475	-0.0928964	-0.174361	-0.462318	0.473602	0.779219	0.852268	0	0	-0.0336034	-0.26285	0.137394	0.612701	1.44813	0	0
0.99	0.0726731	1.43332	-1.40732	0.679003	1.30889	0.94943	0.294966	-0.0656141	-0.0955361	0.418363	-0.290828	0	0	-0.301988	0.0328024	-0.0132294	0.120444	-0.19274	0	0	-0.408949	0.10685	-0.0941254	-0.169564	-0.462384	0.481518	0.778981	0.845768	0	0	-0.038327	-0.259997	0.114481	0.617025	1.46518	0	0
1	0.0992149	1.43715	-1.43885	0.67883	1.30072	0.947771	0.279556	-0.0632102	-0.0920398	0.336856	-0.288769	0	0	-0.308726	0.0364381	-0.0197754	0.120185	-0.187425	0	0	-0.407741	0.1011	-0.0947423	-0.164851	-0.462919	0.48993	0.778968	0.840675	0	0	-0.0428125	-0.257235	0.0937709	0.621129	1.48098	0	0
1.01	0.126246	1.43563	-1.4704	0.678539	1.29263	0.94646	0.256329	-0.0594776	-0.0847318	0.25306	-0.294436	0	0	-0.320742	0.0387388	-0.026704	0.120359	-0.181791	0	0	-0.404566	0.0933133	-0.0476795	-0.220569	-0.4324	0.36989	0.783546	0.923315	0	0	0.0148468	-0.311	0.351738	0.601675	1.28188	0	0
